<svg xmlns="http://www.w3.org/2000/svg" viewBox="0 0 512 512" width="512" height="512">
  <rect x="0" y="0" width="512" height="512" rx="118" fill="#F3EDE0"/>

  <!-- flame: pale halo, yellow body, blue core -->
  <path fill="#F5DFA8" d="M256 58 C237 92 203 128 203 163 C203 193 227 210 256 210 C285 210 309 193 309 163 C309 128 275 92 256 58 Z"/>
  <path fill="#F0BE2C" d="M256 84 C242 112 217 140 217 168 C217 191 235 204 256 204 C277 204 295 191 295 168 C295 140 270 112 256 84 Z"/>
  <path fill="#3E7CC9" d="M256 148 C249 162 239 174 239 184 C239 196 247 202 256 202 C265 202 273 196 273 184 C273 174 263 162 256 148 Z"/>

  <!-- ring handle: filled concentric discs (no stroke seams), fillet blends it into the candle edge -->
  <path fill="#2D2A24" d="M306 320 C326 310 338 310 352 310 L352 344 L306 352 Z"/>
  <circle cx="352" cy="376" r="66" fill="#2D2A24"/>
  <circle cx="352" cy="376" r="46" fill="#B0812E"/>
  <circle cx="352" cy="376" r="36" fill="#2D2A24"/>
  <circle cx="352" cy="376" r="28" fill="#F3EDE0"/>

  <!-- candle body, top edge slanted for uneven burn -->
  <path fill="#F6F1E4" stroke="#2D2A24" stroke-width="20" stroke-linejoin="round"
        d="M212 415 L212 260 Q212 246 226 244 L286 232 Q300 230 300 244 L300 415 Z"/>

  <!-- drip dish -->
  <path fill="#F6F1E4" stroke="#2D2A24" stroke-width="16" stroke-linejoin="round"
        d="M138 415 L378 415 Q390 415 387 427 Q382 448 352 448 L164 448 Q134 448 129 427 Q126 415 138 415 Z"/>
</svg>
